<svg width="16" height="11" viewBox="0 0 16 11" fill="none" xmlns="http://www.w3.org/2000/svg">
<mask id="mask0_0_1008" style="mask-type:luminance" maskUnits="userSpaceOnUse" x="0" y="0" width="16" height="11">
<path d="M15.094 0.376953H0V10.624H15.094V0.376953Z" fill="white"/>
</mask>
<g mask="url(#mask0_0_1008)">
<path d="M7.29001 10.625H7.27001C7.09557 10.6275 6.92287 10.5901 6.76514 10.5155C6.6074 10.441 6.46882 10.3313 6.36001 10.195L0.151014 1.70597C0.080672 1.60614 0.034306 1.49143 0.0155218 1.37076C-0.00326239 1.25009 0.00604157 1.12672 0.0427101 1.01023C0.0793786 0.893742 0.142423 0.787282 0.226941 0.69913C0.311459 0.610979 0.415172 0.543511 0.530014 0.501974C0.776027 0.380377 1.05564 0.344543 1.32436 0.400173C1.59309 0.455802 1.83549 0.5997 2.01301 0.808974L7.33001 8.07797L13.1 0.826974C13.2854 0.622884 13.5336 0.486419 13.8052 0.43915C14.0769 0.391882 14.3566 0.436508 14.6 0.565974C14.7124 0.612051 14.8126 0.683588 14.8927 0.774956C14.9727 0.866324 15.0305 0.975027 15.0614 1.09251C15.0923 1.20999 15.0956 1.33305 15.0709 1.452C15.0462 1.57094 14.9942 1.68253 14.919 1.77797L8.20001 10.224C8.08714 10.3535 7.94704 10.4566 7.78973 10.5257C7.63243 10.5949 7.46179 10.6294 7.29001 10.625Z" fill="black"/>
</g>
</svg>
