<svg width="31" height="41" viewBox="0 0 31 41" fill="none" xmlns="http://www.w3.org/2000/svg">
<mask id="mask0_130_1416" style="mask-type:luminance" maskUnits="userSpaceOnUse" x="0" y="0" width="31" height="41">
<path d="M30.351 0H0V40.806H30.351V0Z" fill="white"/>
</mask>
<g mask="url(#mask0_130_1416)">
<mask id="mask1_130_1416" style="mask-type:luminance" maskUnits="userSpaceOnUse" x="0" y="0" width="31" height="41">
<path d="M30.351 0H0V40.806H30.351V0Z" fill="white"/>
</mask>
<g mask="url(#mask1_130_1416)">
<path d="M29.756 5.17895C29.392 16.9656 29.5023 28.7536 30.087 40.5429C20.136 40.2209 10.27 40.1229 0.416012 40.3849C0.206012 28.4499 0.275012 16.7009 0.272012 4.81995C9.85501 4.81995 19.437 4.81995 29.756 5.17895Z" fill="white"/>
<path d="M30.087 40.8069H30.078C19.284 40.4569 9.58399 40.4069 0.422986 40.6489C0.387948 40.651 0.35288 40.6455 0.320118 40.6329C0.287355 40.6203 0.257652 40.6009 0.232986 40.5759C0.207843 40.5518 0.187735 40.523 0.17383 40.4911C0.159925 40.4591 0.152501 40.4248 0.151986 40.3899C-0.0140135 30.8989 -1.35402e-05 21.3509 -1.35402e-05 12.1129C-1.35402e-05 9.6856 -1.35402e-05 7.25427 -1.35402e-05 4.81894C-0.000576596 4.78316 0.0061381 4.74765 0.0197227 4.71455C0.0333074 4.68145 0.0534784 4.65145 0.0790108 4.62639C0.104543 4.60132 0.134904 4.58171 0.168249 4.56874C0.201595 4.55577 0.237228 4.54971 0.272986 4.55094C9.69799 4.55094 19.443 4.55094 29.766 4.90994C29.8357 4.91254 29.9015 4.94261 29.9491 4.99357C29.9967 5.04453 30.0221 5.11224 30.02 5.18194C29.658 16.9109 29.77 28.8019 30.351 40.5249C30.3527 40.5607 30.3472 40.5964 30.3347 40.63C30.3223 40.6635 30.3031 40.6942 30.2784 40.7201C30.2537 40.746 30.224 40.7666 30.1911 40.7807C30.1582 40.7947 30.1228 40.802 30.087 40.8019M12.036 39.9649C17.667 39.9649 23.554 40.0649 29.809 40.2649C29.243 28.7089 29.134 16.9919 29.483 5.42894C19.363 5.07894 9.79299 5.07794 0.534986 5.07894C0.534986 7.42627 0.534986 9.7696 0.534986 12.1089C0.525986 21.2559 0.516986 30.7089 0.677986 40.1089C4.36499 40.0089 8.13999 39.9659 12.039 39.9659" fill="black"/>
<path d="M26.918 6.99597C26.4217 17.2555 26.5553 27.5358 27.318 37.779C19.239 37.643 11.192 37.505 3.166 37.811C3.077 27.411 2.85 17.211 2.672 6.96497C11.072 7.04797 19.172 7.06497 26.921 6.99597" fill="white"/>
<path d="M3.16302 38.074C3.09342 38.0737 3.02673 38.0461 2.97733 37.9971C2.92793 37.9481 2.8998 37.8816 2.89902 37.812C2.83302 30.148 2.69002 22.472 2.55202 15.049C2.50202 12.3556 2.45302 9.66198 2.40502 6.96798C2.40435 6.93273 2.41075 6.89769 2.42384 6.86495C2.43693 6.83221 2.45645 6.80242 2.48125 6.77735C2.50604 6.75228 2.53561 6.73242 2.5682 6.71896C2.60079 6.7055 2.63575 6.69871 2.67102 6.69898C11.758 6.78898 19.689 6.79898 26.915 6.72998C26.9512 6.72965 26.987 6.73674 27.0203 6.75081C27.0535 6.76489 27.0836 6.78565 27.1085 6.8118C27.1335 6.83796 27.1528 6.86895 27.1652 6.90287C27.1777 6.93679 27.1831 6.9729 27.181 7.00898C26.6776 17.2574 26.8112 27.5271 27.581 37.759C27.5835 37.7955 27.5784 37.8321 27.566 37.8665C27.5536 37.901 27.5342 37.9325 27.509 37.959C27.4832 37.9857 27.452 38.0068 27.4176 38.021C27.3832 38.0351 27.3462 38.0419 27.309 38.041H27.196C19.309 37.908 11.153 37.77 3.17102 38.075H3.16102M2.93802 7.23098C2.98335 9.83565 3.03068 12.4387 3.08002 15.04C3.21702 22.376 3.35802 29.96 3.42502 37.54C11.275 37.25 19.282 37.382 27.034 37.513C26.2861 27.4481 26.1526 17.3471 26.634 7.26598C19.552 7.33198 11.793 7.32098 2.93402 7.23498" fill="black"/>
<path d="M22.552 4.34599C21.567 4.29799 18.61 4.26699 17.609 4.24599C17.15 3.81099 17.659 1.64599 16.855 0.845987C16.3844 0.440366 15.7755 0.231897 15.155 0.263987C14.5332 0.213739 13.9151 0.397788 13.422 0.779987C12.573 1.59899 12.784 4.06499 12.605 4.23799C11.541 4.25199 8.41801 4.27399 7.35101 4.29999C7.35101 7.55299 8.65101 8.10799 11.775 8.20499C16.632 8.35699 19.627 8.33799 20.862 7.82199C21.5317 7.56461 22.0788 7.06253 22.3925 6.41726C22.7062 5.772 22.7632 5.03168 22.552 4.34599ZM13.913 4.22599C13.913 3.53599 13.741 1.98699 15.195 1.98699C16.212 1.98699 15.995 4.06399 16.083 4.22699C15.3623 4.22165 14.639 4.22165 13.913 4.22699" fill="white"/>
<path d="M16.022 8.55299C14.803 8.55299 13.387 8.52099 11.771 8.47099C8.535 8.37099 7.091 7.74399 7.091 4.30199C7.09098 4.23316 7.11783 4.16705 7.16584 4.11774C7.21384 4.06843 7.27921 4.03981 7.348 4.03799C8.063 4.01999 9.701 4.00399 11.017 3.99199L12.407 3.97799C12.421 3.85199 12.433 3.66299 12.443 3.50099C12.5 2.59399 12.586 1.22399 13.243 0.591986C13.7835 0.164043 14.4642 -0.0470321 15.152 -1.41351e-05C15.8436 -0.0344723 16.5213 0.202325 17.041 0.659986C17.5064 1.33171 17.719 2.14651 17.641 2.95999C17.6326 3.30471 17.6679 3.64912 17.746 3.98499L18.795 3.99999C20.082 4.01899 21.844 4.04499 22.564 4.07999C22.6238 4.08294 22.6808 4.10612 22.7257 4.14573C22.7706 4.18534 22.8006 4.23903 22.811 4.29799C23.0341 5.04271 22.9681 5.84416 22.6263 6.54241C22.2845 7.24065 21.692 7.78434 20.967 8.06499C19.3561 8.49503 17.6858 8.65919 16.022 8.55099M7.622 4.55799C7.682 7.33499 8.752 7.84699 11.788 7.94199C16.566 8.09099 19.567 8.07999 20.764 7.57899C21.3481 7.36533 21.8316 6.94161 22.1201 6.39057C22.4086 5.83953 22.4813 5.20075 22.324 4.59899C21.518 4.56899 19.956 4.54599 18.787 4.52799L17.603 4.50999C17.5373 4.50831 17.4746 4.4823 17.427 4.43699C17.151 4.17599 17.132 3.64799 17.108 2.97899C17.1708 2.29935 17.0164 1.61729 16.667 1.03099C16.2496 0.67813 15.7126 0.49913 15.167 0.530986C14.6113 0.479942 14.0563 0.636313 13.609 0.969986C13.1504 1.74358 12.9286 2.63465 12.971 3.53299C12.936 4.09399 12.922 4.30299 12.792 4.43299C12.7436 4.47959 12.6792 4.50604 12.612 4.50699L11.022 4.52399C9.849 4.53499 8.422 4.54899 7.622 4.56399M16.082 4.49499C15.374 4.48899 14.645 4.48899 13.916 4.49499C13.8811 4.49572 13.8463 4.48926 13.814 4.47602C13.7817 4.46277 13.7524 4.44302 13.728 4.41799C13.6783 4.36845 13.6502 4.30119 13.65 4.23099C13.65 4.17199 13.65 4.10499 13.65 4.03099C13.5552 3.35853 13.7243 2.67547 14.122 2.12499C14.2646 1.98816 14.4338 1.88207 14.619 1.81326C14.8043 1.74446 15.0017 1.71441 15.199 1.72499C16.241 1.72499 16.293 3.16799 16.318 3.86199C16.318 3.96199 16.326 4.08899 16.333 4.13399C16.3484 4.17395 16.3539 4.21708 16.3489 4.25963C16.3439 4.30218 16.3287 4.34288 16.3045 4.37821C16.2802 4.41355 16.2478 4.44247 16.2099 4.46246C16.172 4.48246 16.1298 4.49293 16.087 4.49299M14.946 3.95799H15.791C15.791 3.93199 15.791 3.90499 15.791 3.87599C15.772 3.34799 15.732 2.24799 15.2 2.24799C15.073 2.23816 14.9453 2.25458 14.8248 2.29621C14.7044 2.33784 14.5938 2.4038 14.5 2.48999C14.2207 2.92476 14.1065 3.44522 14.178 3.95699H14.95" fill="black"/>
<path d="M7.43801 15.8269H7.43301C7.38449 15.8259 7.3372 15.8115 7.29629 15.7854C7.25538 15.7593 7.22242 15.7225 7.20101 15.6789C6.90237 15.0673 6.53967 14.489 6.11901 13.9539C6.09628 13.9268 6.07923 13.8954 6.06887 13.8616C6.05852 13.8278 6.05507 13.7922 6.05873 13.757C6.06239 13.7218 6.07308 13.6877 6.09017 13.6568C6.10727 13.6258 6.13041 13.5986 6.15823 13.5767C6.18605 13.5549 6.21798 13.5388 6.25212 13.5296C6.28626 13.5203 6.32191 13.518 6.35697 13.5227C6.39202 13.5275 6.42575 13.5393 6.45617 13.5574C6.48658 13.5754 6.51305 13.5994 6.53401 13.6279C6.8731 14.0594 7.17676 14.5175 7.44201 14.9979L8.62901 12.7889C8.66273 12.7283 8.71895 12.6834 8.78551 12.664C8.85207 12.6445 8.92362 12.652 8.9847 12.6848C9.04579 12.7176 9.0915 12.7732 9.11195 12.8395C9.1324 12.9057 9.12596 12.9774 9.09401 13.0389L7.67101 15.6879C7.64838 15.73 7.61476 15.7652 7.57373 15.7897C7.5327 15.8141 7.48579 15.827 7.43801 15.8269Z" fill="black"/>
<path d="M7.43797 22.786H7.43297C7.38445 22.785 7.33716 22.7706 7.29625 22.7445C7.25534 22.7184 7.22238 22.6816 7.20097 22.638C6.90253 22.0268 6.54017 21.4489 6.11997 20.914C6.07936 20.8588 6.06182 20.7899 6.07108 20.722C6.08034 20.654 6.11567 20.5924 6.16958 20.55C6.2235 20.5077 6.29177 20.488 6.35997 20.4951C6.42816 20.5021 6.49092 20.5355 6.53497 20.588C6.87414 21.0194 7.1778 21.4776 7.44297 21.958L8.62997 19.749C8.6637 19.6884 8.71991 19.6435 8.78647 19.624C8.85303 19.6046 8.92458 19.612 8.98566 19.6449C9.04675 19.6777 9.09246 19.7333 9.11291 19.7995C9.13336 19.8658 9.12692 19.9375 9.09497 19.999L7.67197 22.648C7.64935 22.6901 7.61572 22.7253 7.57469 22.7497C7.53366 22.7742 7.48675 22.7871 7.43897 22.787" fill="black"/>
<path d="M6.91699 29.745H6.91199C6.86347 29.744 6.81618 29.7296 6.77527 29.7035C6.73436 29.6774 6.7014 29.6406 6.67999 29.597C6.38154 28.9855 6.01918 28.4073 5.59899 27.872C5.57626 27.8449 5.55921 27.8135 5.54886 27.7797C5.5385 27.7459 5.53505 27.7103 5.53871 27.6751C5.54237 27.6399 5.55306 27.6058 5.57015 27.5749C5.58725 27.5439 5.61039 27.5167 5.63821 27.4948C5.66603 27.473 5.69796 27.4569 5.7321 27.4476C5.76624 27.4384 5.80189 27.4361 5.83695 27.4408C5.872 27.4456 5.90573 27.4574 5.93615 27.4755C5.96656 27.4935 5.99303 27.5175 6.01399 27.546C6.35278 27.9775 6.6561 28.4356 6.92099 28.916L8.10799 26.707C8.14171 26.6464 8.19793 26.6015 8.26449 26.582C8.33105 26.5626 8.4026 26.57 8.46368 26.6029C8.52477 26.6357 8.57047 26.6913 8.59093 26.7576C8.61138 26.8238 8.60494 26.8955 8.57299 26.957L7.14999 29.606C7.12737 29.6481 7.09375 29.6833 7.05271 29.7078C7.01168 29.7322 6.96477 29.7451 6.91699 29.745Z" fill="black"/>
<path d="M13.696 15.941C13.0086 15.941 12.3226 15.938 11.638 15.932C11.5679 15.932 11.5008 15.9042 11.4513 15.8547C11.4018 15.8052 11.374 15.738 11.374 15.668C11.374 15.598 11.4018 15.5308 11.4513 15.4813C11.5008 15.4318 11.5679 15.404 11.638 15.404C15.738 15.441 19.889 15.367 23.981 15.185C24.0157 15.183 24.0505 15.188 24.0832 15.1996C24.116 15.2113 24.1461 15.2294 24.1717 15.2529C24.1974 15.2764 24.218 15.3048 24.2325 15.3364C24.247 15.368 24.255 15.4022 24.256 15.437C24.2589 15.5069 24.2341 15.5751 24.1868 15.6266C24.1396 15.6782 24.0738 15.7089 24.004 15.712C20.586 15.864 17.126 15.941 13.691 15.941" fill="black"/>
<path d="M13.696 22.766C13.0086 22.766 12.3226 22.763 11.638 22.757C11.5679 22.757 11.5008 22.7292 11.4513 22.6797C11.4018 22.6302 11.374 22.563 11.374 22.493C11.374 22.423 11.4018 22.3558 11.4513 22.3063C11.5008 22.2568 11.5679 22.229 11.638 22.229C15.738 22.266 19.889 22.192 23.981 22.01C24.049 22.01 24.1144 22.0363 24.1636 22.0833C24.2127 22.1303 24.2418 22.1945 24.2448 22.2625C24.2477 22.3305 24.2243 22.397 24.1795 22.4481C24.1346 22.4992 24.0717 22.5311 24.004 22.537C20.586 22.689 17.126 22.766 13.691 22.766" fill="black"/>
<path d="M13.879 29.592C13.1917 29.592 12.5057 29.589 11.821 29.583C11.751 29.583 11.6838 29.5552 11.6343 29.5057C11.5848 29.4562 11.557 29.389 11.557 29.319C11.557 29.249 11.5848 29.1818 11.6343 29.1323C11.6838 29.0828 11.751 29.055 11.821 29.055C15.921 29.092 20.072 29.018 24.165 28.836H24.177C24.247 28.8344 24.3148 28.8607 24.3654 28.9091C24.4161 28.9575 24.4454 29.024 24.447 29.094C24.4486 29.164 24.4223 29.2318 24.3739 29.2824C24.3255 29.3331 24.259 29.3624 24.189 29.364C20.771 29.516 17.311 29.593 13.875 29.593" fill="black"/>
<g opacity="0.129">
<mask id="mask2_130_1416" style="mask-type:luminance" maskUnits="userSpaceOnUse" x="8" y="5" width="16" height="5">
<path d="M23.127 5.52393H8.26697V9.54993H23.127V5.52393Z" fill="white"/>
</mask>
<g mask="url(#mask2_130_1416)">
<path d="M23.1199 5.9029C23.1105 5.81788 23.0755 5.73771 23.0197 5.67293C22.9638 5.60814 22.8896 5.56176 22.8069 5.5399C22.4559 5.4509 22.2499 5.7459 22.2219 6.0599C22.2159 6.1389 22.1079 6.4389 22.1219 6.4199C22.0871 6.5066 22.0471 6.59109 22.0019 6.6729C21.9769 6.7429 21.8129 6.9979 21.7649 7.0729C21.7214 7.12417 21.6739 7.17198 21.6229 7.2159C21.4556 7.34299 21.2788 7.457 21.0939 7.5569C20.8319 7.6499 20.5529 7.6839 20.2939 7.7709C20.0655 7.85805 19.8317 7.9302 19.5939 7.9869C19.2519 8.0009 18.9139 8.0589 18.5749 8.0949C18.1511 8.13902 17.7249 8.15573 17.2989 8.1449C16.3879 8.1449 15.4769 8.2499 14.5639 8.2449C13.6139 8.1959 12.6639 8.1349 11.7149 8.0829C10.9963 8.07952 10.2845 7.94393 9.61494 7.6829C9.68394 7.7109 9.73794 7.7389 9.62994 7.6899L9.60794 7.6799L9.57894 7.6689L9.60594 7.6789C9.36883 7.5393 9.11738 7.42564 8.85594 7.3399C8.73904 7.32613 8.62094 7.35275 8.52125 7.41534C8.42156 7.47792 8.34626 7.57271 8.30785 7.68397C8.26944 7.79524 8.27022 7.91629 8.31007 8.02705C8.34992 8.1378 8.42644 8.23161 8.52694 8.2929C9.28256 8.77875 10.1165 9.13027 10.9919 9.3319C11.8089 9.44001 12.6319 9.49546 13.4559 9.4979C14.1172 9.54637 14.7807 9.55472 15.4429 9.5229C16.0963 9.52064 16.7487 9.47488 17.3959 9.3859C17.5959 9.3749 18.7819 9.2239 18.8959 9.1859C19.2996 9.14357 19.7004 9.07678 20.0959 8.9859C20.5869 8.8129 21.0899 8.6699 21.5759 8.4859C21.7905 8.37037 21.9918 8.23153 22.1759 8.0719L22.0759 8.1519C22.309 7.98728 22.5004 7.77053 22.6349 7.5189C22.8411 7.12791 22.9922 6.71029 23.0839 6.2779C23.1221 6.15259 23.139 6.02178 23.1339 5.8909" fill="black"/>
</g>
</g>
<g opacity="0.129">
<mask id="mask3_130_1416" style="mask-type:luminance" maskUnits="userSpaceOnUse" x="2" y="7" width="27" height="32">
<path d="M28.131 7.12793H2.84796V38.8419H28.131V7.12793Z" fill="white"/>
</mask>
<g mask="url(#mask3_130_1416)">
<path d="M27.938 31.4289C27.859 30.3669 27.884 29.2999 27.793 28.2379C27.693 26.6879 27.525 25.1379 27.461 23.5879C27.481 22.7379 27.298 21.9019 27.305 21.0509C27.265 19.7509 27.361 18.4509 27.398 17.1579C27.423 15.3779 27.371 13.5959 27.533 11.8209C27.5237 10.8207 27.5755 9.82084 27.688 8.82692C27.711 8.48692 27.698 8.14592 27.723 7.80692C27.723 7.77292 27.723 7.73993 27.729 7.70693C27.7383 7.65602 27.7383 7.60383 27.729 7.55292C27.7183 7.45619 27.6785 7.36496 27.615 7.29125C27.5515 7.21753 27.4671 7.16478 27.373 7.13992C26.44 6.97792 26.728 8.46593 26.597 9.13393C26.443 10.1119 26.507 11.1009 26.446 12.0849C26.285 13.9189 26.446 15.7619 26.413 17.5989C26.404 18.8749 26.353 20.1509 26.356 21.4269C26.365 22.0609 26.483 22.6859 26.49 23.3189C26.512 24.5889 26.614 25.8549 26.647 27.1249C26.7483 28.8063 26.7997 30.4896 26.801 32.1749C26.896 33.7229 26.963 35.2749 26.923 36.8239C26.9251 37.0651 26.8859 37.305 26.807 37.5329C26.2495 37.4719 25.6883 37.4532 25.128 37.4769C23.712 37.4769 22.297 37.4459 20.881 37.4649C19.832 37.4799 18.781 37.5759 17.736 37.5849C16.149 37.5929 14.561 37.5999 12.974 37.5709C12.3193 37.5144 11.6616 37.4997 11.005 37.5269C9.45199 37.6109 7.89399 37.5349 6.34099 37.4899C5.59644 37.4273 4.84811 37.4237 4.10299 37.4789C3.93065 37.4771 3.75913 37.455 3.59199 37.4129C3.44055 37.3712 3.27872 37.3913 3.1421 37.4688C3.00548 37.5463 2.90526 37.675 2.86349 37.8264C2.82172 37.9779 2.84181 38.1397 2.91936 38.2763C2.99691 38.4129 3.12555 38.5132 3.27699 38.5549C4.28204 38.6848 5.29368 38.7572 6.30699 38.7719C7.63099 38.8233 8.95599 38.8463 10.282 38.8409C11.172 38.7989 12.061 38.7809 12.952 38.8159C15.791 38.8669 18.63 38.8389 21.464 38.6659C23.064 38.5659 24.664 38.6799 26.259 38.5899C26.624 38.5629 26.991 38.6459 27.353 38.5899C27.4567 38.5608 27.5496 38.5022 27.6206 38.4213C27.6917 38.3403 27.7376 38.2405 27.753 38.1339C27.8034 38.073 27.8396 38.0016 27.859 37.9249C28.0411 37.1745 28.1274 36.404 28.116 35.6319C28.133 34.2297 28.0733 32.8276 27.937 31.4319" fill="black"/>
</g>
</g>
</g>
</g>
</svg>
