<svg width="41" height="40" viewBox="0 0 41 40" fill="none" xmlns="http://www.w3.org/2000/svg">
<mask id="mask0_130_1458" style="mask-type:luminance" maskUnits="userSpaceOnUse" x="0" y="0" width="41" height="40">
<path d="M40.349 0H0V39.36H40.349V0Z" fill="white"/>
</mask>
<g mask="url(#mask0_130_1458)">
<mask id="mask1_130_1458" style="mask-type:luminance" maskUnits="userSpaceOnUse" x="0" y="0" width="41" height="40">
<path d="M40.349 0H0V39.36H40.349V0Z" fill="white"/>
</mask>
<g mask="url(#mask1_130_1458)">
<path d="M0.289001 19.681C0.35542 14.4727 2.48764 9.50399 6.21678 5.86748C9.94593 2.23097 14.9667 0.224397 20.175 0.288988C25.3833 0.224397 30.4041 2.23097 34.1332 5.86748C37.8624 9.50399 39.9946 14.4727 40.061 19.681C39.9943 24.8891 37.862 29.8576 34.1329 33.4938C30.4038 37.1301 25.3831 39.1366 20.175 39.072C14.9669 39.1366 9.94625 37.1301 6.21713 33.4938C2.48801 29.8576 0.355683 24.8891 0.289001 19.681Z" fill="white"/>
<path d="M20.175 39.36C14.8918 39.419 9.80094 37.3803 6.01884 33.691C2.23675 30.0017 0.0722211 24.963 0 19.68C0.0722211 14.397 2.23675 9.35834 6.01884 5.66903C9.80094 1.97973 14.8918 -0.0589852 20.175 2.5559e-05C25.4579 -0.0584535 30.5484 1.98047 34.3302 5.66968C38.112 9.3589 40.2765 14.3973 40.349 19.68C40.2768 24.9628 38.1124 30.0014 34.3305 33.6907C30.5486 37.3799 25.458 39.4188 20.175 39.36ZM20.175 0.577026C15.045 0.517464 10.1008 2.49474 6.42658 6.07525C2.75234 9.65576 0.647994 14.5472 0.575 19.677C0.647994 24.8068 2.75234 29.6983 6.42658 33.2788C10.1008 36.8593 15.045 38.8366 20.175 38.777C25.305 38.8366 30.2492 36.8593 33.9234 33.2788C37.5977 29.6983 39.702 24.8068 39.775 19.677C39.702 14.5472 37.5977 9.65576 33.9234 6.07525C30.2492 2.49474 25.305 0.517464 20.175 0.577026Z" fill="black"/>
<path d="M2.75999 19.68C2.79645 15.1826 4.6176 10.8838 7.82299 7.72883C11.0284 4.57389 15.3556 2.82115 19.853 2.85603C22.0805 2.83784 24.2898 3.25858 26.3547 4.09423C28.4195 4.92988 30.2996 6.16408 31.8875 7.72634C33.4754 9.28861 34.74 11.1484 35.6092 13.1994C36.4783 15.2504 36.9349 17.4525 36.953 19.68C36.9348 21.9075 36.4781 24.1095 35.6089 26.1604C34.7397 28.2113 33.475 30.0709 31.8872 31.6331C30.2993 33.1952 28.4193 34.4293 26.3544 35.2649C24.2896 36.1005 22.0804 36.5212 19.853 36.503C17.6255 36.5212 15.4162 36.1005 13.3513 35.2648C11.2864 34.4292 9.40636 33.195 7.81846 31.6327C6.23057 30.0705 4.96594 28.2107 4.09681 26.1597C3.22767 24.1087 2.77104 21.9065 2.75299 19.679" fill="white"/>
<path d="M19.858 36.7921C15.2849 36.823 10.8862 35.0388 7.62691 31.8308C4.36758 28.6228 2.51372 24.2531 2.47198 19.6801C2.54123 15.1147 4.40343 10.7597 7.65641 7.55573C10.9094 4.35172 15.2921 2.55579 19.858 2.55579C24.4239 2.55579 28.8066 4.35172 32.0596 7.55573C35.3125 10.7597 37.1747 15.1147 37.244 19.6801C37.2022 24.2531 35.3484 28.6228 32.0891 31.8308C28.8297 35.0388 24.4311 36.823 19.858 36.7921ZM19.858 3.14507C15.4378 3.11389 11.1858 4.83723 8.03461 7.93704C4.88343 11.0368 3.09045 15.26 3.04899 19.6801C3.11706 24.0932 4.91795 28.3025 8.06285 31.3993C11.2077 34.496 15.4443 36.2318 19.858 36.2318C24.2716 36.2318 28.5082 34.496 31.6531 31.3993C34.798 28.3025 36.5989 24.0932 36.667 19.6801C36.6253 15.2601 34.8322 11.0371 31.6811 7.93733C28.53 4.83758 24.2781 3.11415 19.858 3.14507Z" fill="black"/>
<path d="M19.858 19.968C19.8032 19.968 19.7496 19.9524 19.7033 19.923C19.6571 19.8936 19.6202 19.8516 19.597 19.802L13.955 7.78798C13.9274 7.71954 13.927 7.64313 13.9539 7.57442C13.9809 7.50571 14.0331 7.4499 14.0998 7.41844C14.1666 7.38698 14.2428 7.38226 14.313 7.40522C14.3831 7.42819 14.4418 7.47712 14.477 7.54198L20.116 19.557C20.1368 19.6009 20.1461 19.6494 20.143 19.6979C20.14 19.7464 20.1248 19.7933 20.0987 19.8344C20.0727 19.8754 20.0367 19.9092 19.994 19.9325C19.9514 19.9559 19.9036 19.9681 19.855 19.968" fill="black"/>
<path d="M18.772 20.0491L26.428 24.6901L25.293 26.6751L30.833 25.8171L28.558 21.0071L27.464 22.5411L19.63 18.3881L18.772 20.0491Z" fill="white"/>
<path d="M25.292 26.964C25.2414 26.9641 25.1917 26.9509 25.1478 26.9257C25.104 26.9004 25.0675 26.8641 25.0422 26.8203C25.0168 26.7765 25.0035 26.7268 25.0034 26.6762C25.0034 26.6256 25.0167 26.5759 25.042 26.532L26.042 24.791L18.627 20.291C18.5644 20.2533 18.5185 20.1931 18.4986 20.1227C18.4788 20.0523 18.4864 19.977 18.52 19.912L19.38 18.251C19.3975 18.2172 19.4216 18.1872 19.4508 18.1627C19.4799 18.1382 19.5137 18.1198 19.5501 18.1084C19.5864 18.0971 19.6247 18.093 19.6626 18.0966C19.7005 18.1001 19.7374 18.1112 19.771 18.129L27.382 22.163L28.33 20.835C28.3589 20.7929 28.3985 20.7592 28.4446 20.7374C28.4908 20.7155 28.542 20.7064 28.5929 20.7109C28.6438 20.7154 28.6926 20.7333 28.7342 20.7628C28.7759 20.7924 28.809 20.8325 28.83 20.879L31.102 25.688C31.1212 25.7286 31.1307 25.7731 31.1297 25.818C31.1286 25.8629 31.1171 25.9069 31.096 25.9465C31.0749 25.9862 31.0449 26.0203 31.0082 26.0463C30.9716 26.0723 30.9294 26.0893 30.885 26.096L25.345 26.955C25.3304 26.956 25.3157 26.956 25.301 26.955M19.161 19.934L26.586 24.434C26.6503 24.4731 26.6968 24.5358 26.7155 24.6087C26.7342 24.6815 26.7236 24.7589 26.686 24.824L25.848 26.289L30.414 25.581L28.514 21.566L27.705 22.699C27.6644 22.756 27.6045 22.7962 27.5364 22.8122C27.4683 22.8282 27.3967 22.8189 27.335 22.786L19.754 18.785L19.161 19.934Z" fill="black"/>
<path d="M20.103 17.893C19.739 17.9335 19.3959 18.0838 19.1192 18.3238C18.8426 18.5639 18.6454 18.8823 18.554 19.237C18.4702 19.5965 18.5025 19.9732 18.6461 20.3132C18.7898 20.6532 19.0374 20.939 19.3535 21.1295C19.6696 21.3201 20.0379 21.4056 20.4056 21.3739C20.7733 21.3422 21.1216 21.1948 21.4003 20.9529C21.6791 20.711 21.8741 20.3871 21.9574 20.0275C22.0407 19.6679 22.0079 19.2912 21.8638 18.9514C21.7198 18.6116 21.4718 18.3262 21.1554 18.136C20.8391 17.9459 20.4707 17.8608 20.103 17.893Z" fill="white"/>
<path d="M20.225 21.6841C20.1458 21.6843 20.0666 21.6793 19.988 21.6691C19.7095 21.621 19.4435 21.5176 19.2057 21.3651C18.9678 21.2126 18.7629 21.0139 18.603 20.7809C18.4432 20.5479 18.3316 20.2852 18.2749 20.0084C18.2183 19.7315 18.2176 19.4462 18.273 19.1691C18.3789 18.7564 18.6077 18.3857 18.9292 18.1062C19.2507 17.8267 19.6496 17.6516 20.073 17.6041C20.3534 17.5851 20.6347 17.6254 20.8985 17.7224C21.1623 17.8194 21.4027 17.9709 21.604 18.1671C21.8189 18.36 21.9909 18.596 22.1085 18.8598C22.2262 19.1236 22.287 19.4092 22.287 19.6981C22.2747 19.9808 22.2031 20.2578 22.0768 20.511C21.9506 20.7643 21.7724 20.9881 21.554 21.1681C21.1848 21.4922 20.7122 21.6741 20.221 21.6811M20.121 18.1811C19.8199 18.2197 19.5372 18.3472 19.3089 18.5472C19.0806 18.7472 18.917 19.0107 18.839 19.3041C18.7596 19.603 18.7791 19.9197 18.8946 20.2067C19.0101 20.4937 19.2153 20.7356 19.4796 20.8963C19.744 21.0569 20.0532 21.1278 20.3611 21.0982C20.669 21.0686 20.9591 20.9402 21.188 20.7321C21.3446 20.6047 21.4726 20.4458 21.5639 20.2658C21.6552 20.0858 21.7077 19.8886 21.718 19.6871C21.7155 19.4791 21.6697 19.2739 21.5837 19.0845C21.4976 18.8951 21.3731 18.7257 21.218 18.5871C21.0763 18.4464 20.9065 18.3372 20.7197 18.2665C20.5329 18.1959 20.3333 18.1654 20.134 18.1771" fill="black"/>
<path d="M4.36301 21.064C4.28765 21.0667 4.21424 21.0398 4.15853 20.989C4.10282 20.9381 4.06927 20.8675 4.06508 20.7922C4.06089 20.7169 4.0864 20.643 4.13612 20.5863C4.18584 20.5296 4.25582 20.4947 4.33101 20.489C5.15801 20.3954 5.99249 20.3881 6.82101 20.467C6.8587 20.4706 6.89531 20.4816 6.92875 20.4994C6.96219 20.5171 6.9918 20.5413 7.0159 20.5705C7.03999 20.5997 7.0581 20.6334 7.06919 20.6696C7.08027 20.7058 7.08412 20.7438 7.08051 20.7815C7.0769 20.8192 7.0659 20.8558 7.04814 20.8893C7.03038 20.9227 7.00621 20.9523 6.97701 20.9764C6.9478 21.0005 6.91414 21.0186 6.87793 21.0297C6.84173 21.0408 6.8037 21.0446 6.76601 21.041C5.97774 20.9661 5.18383 20.9732 4.39701 21.062H4.36401" fill="black"/>
<path d="M19.751 34.5261C19.6745 34.5253 19.6015 34.4942 19.5479 34.4397C19.4942 34.3851 19.4644 34.3116 19.465 34.2351L19.485 31.8711C19.4855 31.7949 19.5162 31.722 19.5704 31.6684C19.6246 31.6148 19.6978 31.5848 19.774 31.5851C19.8504 31.5859 19.9235 31.6169 19.9771 31.6715C20.0307 31.726 20.0605 31.7996 20.06 31.8761L20.04 34.2401C20.0394 34.3163 20.0087 34.3892 19.9546 34.4428C19.9004 34.4964 19.8272 34.5263 19.751 34.5261Z" fill="black"/>
<path d="M19.741 7.02205C19.6645 7.02126 19.5915 6.99019 19.5379 6.93565C19.4843 6.8811 19.4545 6.80753 19.455 6.73105L19.475 4.36705C19.4758 4.29093 19.5066 4.21819 19.5607 4.16464C19.6148 4.11109 19.6879 4.08105 19.764 4.08105C19.8405 4.08185 19.9135 4.11292 19.9671 4.16746C20.0208 4.22201 20.0506 4.29558 20.05 4.37205L20.03 6.73605C20.0295 6.81226 19.9988 6.88516 19.9446 6.93876C19.8904 6.99237 19.8172 7.02232 19.741 7.02205Z" fill="black"/>
<path d="M35.041 19.546C35.0237 19.5475 35.0063 19.5475 34.989 19.546C34.4232 19.4426 33.8465 19.4124 33.273 19.456C33.1997 19.4567 33.1289 19.4295 33.075 19.3799C33.021 19.3304 32.9879 19.2621 32.9823 19.1891C32.9767 19.116 32.9991 19.0436 33.0449 18.9864C33.0907 18.9292 33.1565 18.8915 33.229 18.881C33.852 18.8345 34.4785 18.8681 35.093 18.981C35.1626 18.9953 35.2244 19.0348 35.2668 19.0918C35.3091 19.1489 35.329 19.2195 35.3225 19.2903C35.3161 19.361 35.2839 19.4269 35.2319 19.4754C35.18 19.5238 35.112 19.5515 35.041 19.553" fill="black"/>
<g opacity="0.129">
<mask id="mask2_130_1458" style="mask-type:luminance" maskUnits="userSpaceOnUse" x="21" y="19" width="3" height="3">
<path d="M23.053 19.884H21.205V21.72H23.053V19.884Z" fill="white"/>
</mask>
<g mask="url(#mask2_130_1458)">
<path d="M22.443 19.899C22.3468 19.9269 22.2613 19.9836 22.1984 20.0616C22.1354 20.1396 22.098 20.2351 22.091 20.335L22.067 20.362C21.859 20.615 21.667 20.616 21.312 20.946C21.2459 21.0342 21.2121 21.1424 21.2164 21.2526C21.2206 21.3627 21.2626 21.468 21.3353 21.5508C21.4081 21.6336 21.5071 21.6889 21.6157 21.7073C21.7244 21.7258 21.8361 21.7062 21.932 21.652C22.339 21.4411 22.6905 21.1372 22.958 20.765C23.192 20.35 22.977 19.786 22.441 19.9" fill="black"/>
</g>
</g>
<g opacity="0.129">
<mask id="mask3_130_1458" style="mask-type:luminance" maskUnits="userSpaceOnUse" x="19" y="2" width="1" height="1">
<path d="M19.84 2.828H19.822V2.832H19.84V2.828Z" fill="white"/>
</mask>
<g mask="url(#mask3_130_1458)">
<path d="M19.835 2.83197H19.841C19.823 2.83197 19.814 2.82497 19.835 2.83197Z" fill="black"/>
</g>
</g>
<g opacity="0.129">
<mask id="mask4_130_1458" style="mask-type:luminance" maskUnits="userSpaceOnUse" x="2" y="2" width="27" height="30">
<path d="M28.494 2.78601H2.97198V31.728H28.494V2.78601Z" fill="white"/>
</mask>
<g mask="url(#mask4_130_1458)">
<path d="M28.384 5.02706C27.9973 4.83506 27.6047 4.65673 27.206 4.49206C26.4009 4.16238 25.5755 3.88448 24.735 3.66006C24.6775 3.64723 24.6266 3.61404 24.5917 3.56662C24.5568 3.5192 24.5402 3.46076 24.545 3.40206C24.269 3.34006 23.99 3.29007 23.707 3.25307C22.6361 3.05038 21.5465 2.96288 20.457 2.99206C20.3931 2.93085 20.3116 2.89132 20.224 2.87906C20.176 2.87106 19.909 2.83506 19.84 2.82706L19.876 2.83507C19.721 2.81207 19.563 2.80607 19.407 2.79507C19.0929 2.77402 18.7776 2.77702 18.464 2.80407C17.6836 2.88964 16.9118 3.04118 16.157 3.25707C14.9716 3.56144 13.8118 3.95763 12.688 4.44206C11.5266 4.87895 10.4349 5.48225 9.44699 6.23306C8.56298 6.99084 7.77241 7.85124 7.09198 8.79606C7.00453 8.74745 6.90156 8.7349 6.80499 8.76107C6.51799 8.89707 6.63099 8.89407 6.40499 9.16107C6.16799 9.50207 5.95798 9.86107 5.74998 10.2201C5.46561 10.6514 5.22031 11.1072 5.01699 11.5821C4.95111 11.6928 4.92303 11.822 4.93699 11.9501C4.7412 12.2589 4.56647 12.5807 4.41399 12.9131C3.36422 15.2427 2.87252 17.7851 2.97799 20.3381C3.05994 21.4371 3.21259 22.5297 3.43499 23.6091C3.71837 24.7802 4.12045 25.9195 4.63499 27.0091C4.66717 27.0656 4.71198 27.114 4.76592 27.1504C4.81987 27.1869 4.88148 27.2103 4.94598 27.2191C5.21899 27.8621 5.57399 28.7571 5.97499 29.5251C6.29065 30.1819 6.71685 30.7796 7.23499 31.2921C7.37393 31.4426 7.52961 31.5768 7.69899 31.6921C7.78232 31.7285 7.87614 31.733 7.9626 31.7048C8.04906 31.6766 8.12215 31.6176 8.16798 31.5391C8.35699 31.2141 7.99298 30.9821 7.79998 30.7721C7.67596 30.6444 7.56165 30.5077 7.45798 30.3631C7.15161 29.9296 6.8855 29.469 6.66299 28.9871C6.37599 28.4511 6.09599 27.9101 5.85199 27.3521C5.70199 26.9651 5.41999 26.3791 5.11899 25.7621C4.79047 24.7328 4.53549 23.6815 4.35598 22.6161C3.80515 19.827 4.05512 16.939 5.07699 14.2861C5.8085 12.8424 6.70192 11.4867 7.73998 10.2451C8.60653 9.32052 9.53106 8.4521 10.508 7.64506C11.3694 6.83867 12.3375 6.15429 13.385 5.61107C14.2504 5.22038 15.1391 4.88341 16.046 4.60207C17.8017 4.20873 19.593 3.99563 21.392 3.96606C22.183 4.03806 22.839 4.17206 23.783 4.32406C25.2323 4.53299 26.6555 4.89433 28.029 5.40206C28.0803 5.42186 28.1357 5.42898 28.1903 5.42282C28.245 5.41666 28.2974 5.3974 28.343 5.36668C28.3887 5.33596 28.4262 5.29469 28.4525 5.24636C28.4788 5.19803 28.493 5.14407 28.494 5.08906C28.457 5.07006 28.421 5.05007 28.385 5.03107" fill="black"/>
</g>
</g>
<g opacity="0.129">
<mask id="mask5_130_1458" style="mask-type:luminance" maskUnits="userSpaceOnUse" x="11" y="13" width="30" height="27">
<path d="M40.077 13.0961H11.397V39.0281H40.077V13.0961Z" fill="white"/>
</mask>
<g mask="url(#mask5_130_1458)">
<path d="M38.991 13.0961C38.9185 13.0948 38.8471 13.1127 38.7837 13.1478C38.7203 13.1829 38.6673 13.234 38.63 13.2961C38.5784 13.3918 38.5621 13.5026 38.584 13.6091C38.584 13.6851 38.605 13.8791 38.613 13.9371C38.633 14.0221 38.713 14.8011 38.769 15.2621C39.416 18.8336 38.9818 22.517 37.522 25.8401C37.0838 27.0802 36.5276 28.2753 35.861 29.4091C35.838 29.4411 35.815 29.4731 35.793 29.5091C35.927 29.3321 35.85 29.4341 35.768 29.5431C35.432 29.9521 35.076 30.3431 34.72 30.7371C33.4113 32.1541 31.9819 33.4547 30.448 34.6241C29.7502 35.1903 28.9879 35.672 28.177 36.0591C27.931 36.1591 28.231 36.0361 27.896 36.1681C27.071 36.4271 26.268 36.7521 25.438 36.9901C24.2986 37.3088 23.1486 37.5868 21.988 37.8241C21.1409 37.9691 20.2842 38.0503 19.425 38.0671C18.2287 38.1702 17.0241 38.1218 15.84 37.9231C14.8133 37.7082 13.8015 37.4273 12.811 37.0821C12.506 36.9731 12.198 36.8721 11.89 36.7691C11.8393 36.753 11.786 36.7474 11.7331 36.7524C11.6802 36.7575 11.6289 36.7732 11.5822 36.7985C11.5355 36.8239 11.4944 36.8584 11.4614 36.8999C11.4283 36.9415 11.404 36.9894 11.3899 37.0406C11.3758 37.0918 11.3721 37.1453 11.3792 37.198C11.3862 37.2506 11.4038 37.3013 11.4308 37.347C11.4579 37.3927 11.4939 37.4325 11.5367 37.4639C11.5796 37.4954 11.6283 37.5179 11.68 37.5301C13.074 38.0541 14.5028 38.4804 15.956 38.8061C16.622 38.8901 17.29 38.9821 17.956 39.0241C18.688 39.0371 19.419 38.9841 20.149 38.9451C21.297 38.9503 22.4411 38.8102 23.554 38.5281C24.4924 38.3392 25.4197 38.0992 26.332 37.8091C26.985 37.5571 27.672 37.4091 28.337 37.2021C28.8118 37.0326 29.2723 36.8253 29.714 36.5821C31.2809 35.6055 32.7325 34.4548 34.041 33.1521C34.898 32.422 35.6835 31.6121 36.387 30.7331C37.1178 29.6919 37.6941 28.5504 38.098 27.3441C38.6827 26.1767 39.1632 24.96 39.534 23.7081C40.0725 21.4089 40.2105 19.0341 39.942 16.6881C39.5213 15.5198 39.2009 14.3178 38.984 13.0951" fill="black"/>
</g>
</g>
</g>
</g>
</svg>
