<svg width="39" height="29" viewBox="0 0 39 29" fill="none" xmlns="http://www.w3.org/2000/svg">
<mask id="mask0_130_1555" style="mask-type:luminance" maskUnits="userSpaceOnUse" x="0" y="0" width="39" height="29">
<path d="M38.946 0H0V28.73H38.946V0Z" fill="white"/>
</mask>
<g mask="url(#mask0_130_1555)">
<mask id="mask1_130_1555" style="mask-type:luminance" maskUnits="userSpaceOnUse" x="0" y="0" width="39" height="29">
<path d="M38.946 0H0V28.73H38.946V0Z" fill="white"/>
</mask>
<g mask="url(#mask1_130_1555)">
<path d="M35.97 28.486C34.9888 27.1536 33.7389 26.042 32.301 25.223C30.395 24.311 28.173 24.487 26.067 24.658C22.1609 25.0322 18.2344 25.1488 14.313 25.007C13.1549 25.0625 12.0119 24.7264 11.068 24.053C10.38 23.3182 9.92493 22.3961 9.76002 21.403C9.30425 19.6189 8.95794 17.8085 8.72302 15.982C8.44084 14.2241 8.43039 12.4332 8.69202 10.672C8.96173 8.8991 9.8302 7.27191 11.153 6.06104C13.259 4.26604 16.263 4.11004 19.029 4.04104L30.981 3.74104C32.931 3.69204 35.123 3.74104 36.481 5.13204C37.2099 6.00937 37.7123 7.05222 37.944 8.16904C39.044 11.983 39.095 18.969 37.066 21.587C36.4227 22.2051 35.8826 22.9222 35.466 23.711C34.92 25.272 36.042 26.897 35.973 28.484" fill="white"/>
<path d="M35.971 28.73C35.9357 28.7299 35.9007 28.7222 35.8686 28.7074C35.8365 28.6925 35.808 28.6709 35.785 28.644C34.8232 27.3407 33.6015 26.2511 32.197 25.444C30.342 24.557 28.18 24.733 26.088 24.902C22.1697 25.2774 18.2308 25.3947 14.297 25.253C13.0835 25.3072 11.8873 24.9491 10.903 24.237C10.1791 23.4695 9.6983 22.5051 9.52104 21.465C9.06322 19.6709 8.71524 17.8505 8.47904 16.014C8.19422 14.2314 8.18444 12.4156 8.45004 10.63C8.72958 8.8016 9.62707 7.12414 10.993 5.877C13.093 4.091 15.986 3.87701 19.021 3.79901L30.973 3.49901C33.073 3.44801 35.245 3.51601 36.657 4.96401C37.4158 5.86875 37.939 6.9471 38.18 8.103C39.248 11.803 39.42 18.954 37.261 21.739C37.08 21.973 36.876 22.192 36.679 22.405C36.2593 22.7957 35.9244 23.2685 35.695 23.794C35.4896 24.6699 35.5541 25.5875 35.88 26.426C36.0957 27.0955 36.209 27.7937 36.216 28.497C36.214 28.5461 36.1971 28.5933 36.1677 28.6326C36.1382 28.6719 36.0975 28.7013 36.051 28.717C36.0256 28.7258 35.9979 28.7302 35.971 28.73ZM28.606 24.278C29.911 24.2326 31.2095 24.4804 32.406 25.003C33.6773 25.694 34.7934 26.6385 35.685 27.778C35.6155 27.3644 35.5223 26.955 35.406 26.552C35.0503 25.6199 34.9889 24.6011 35.23 23.633C35.4798 23.043 35.85 22.5116 36.317 22.073C36.507 21.873 36.703 21.657 36.871 21.44C38.747 19.021 38.862 12.24 37.707 8.24001C37.4892 7.1616 37.0083 6.15373 36.307 5.30601C35.031 3.99901 32.978 3.937 30.984 3.988L19.032 4.28801C16.088 4.36201 13.282 4.56701 11.309 6.25001C10.0287 7.42451 9.18915 9.002 8.93004 10.72C8.6743 12.4565 8.68543 14.2219 8.96304 15.955C9.197 17.7716 9.5413 19.5723 9.99404 21.347C10.1492 22.2918 10.579 23.17 11.23 23.872C12.1358 24.5051 13.2263 24.8192 14.33 24.765C18.2422 24.9054 22.1593 24.7885 26.056 24.415C26.878 24.348 27.744 24.278 28.613 24.278" fill="black"/>
<path d="M2.87303 26.798C3.70303 25.2347 4.60736 23.7143 5.58603 22.237C5.81938 21.8446 6.11489 21.4927 6.46103 21.195C6.92061 20.8792 7.44276 20.6661 7.99203 20.57C10.005 20.1689 12.0506 19.954 14.103 19.928L24.658 19.472C26.1476 19.5451 27.6275 19.1956 28.927 18.464C29.6162 17.9394 30.1852 17.2735 30.596 16.511C31.1264 15.6419 31.5115 14.6921 31.736 13.699C31.9523 12.4029 31.9695 11.0813 31.787 9.78C31.562 7.534 31.152 5.164 29.66 3.47C27.93 1.505 25.148 0.892 22.547 0.594C17.9558 0.117355 13.3269 0.133111 8.73903 0.641C6.43903 0.872 3.95103 1.292 2.40703 3.006C1.47247 4.17932 0.880651 5.58826 0.697027 7.077C0.297381 9.75296 0.146403 12.4602 0.246027 15.164C0.191292 15.9892 0.321104 16.8162 0.626027 17.585C1.0306 18.2284 1.48819 18.8368 1.99403 19.404C3.44303 21.436 3.05503 24.204 2.87303 26.804" fill="white"/>
<path d="M2.87202 27.042C2.84939 27.0421 2.82684 27.0391 2.80502 27.033C2.75124 27.0176 2.7044 26.9841 2.67236 26.9382C2.64031 26.8924 2.62501 26.8369 2.62902 26.781C2.64702 26.525 2.66702 26.268 2.68702 26.009C2.86602 23.694 3.05002 21.301 1.79502 19.54C1.63702 19.318 1.45202 19.103 1.27302 18.894C0.933293 18.5305 0.642193 18.1245 0.407024 17.686C0.0873059 16.8857 -0.0493634 16.024 0.00702427 15.164C-0.0929157 12.4452 0.0587296 9.72295 0.460024 7.03203C0.658904 5.50051 1.27037 4.05186 2.22902 2.84103C3.79002 1.10803 6.27102 0.642033 8.71802 0.400033C13.3229 -0.11379 17.9696 -0.130554 22.578 0.350033C24.993 0.627033 28.002 1.21203 29.846 3.30703C31.375 5.04403 31.8 7.43203 32.033 9.75403C32.2166 11.0805 32.198 12.4271 31.978 13.748C31.7497 14.7678 31.3548 15.7429 30.809 16.634C30.3826 17.4283 29.7889 18.1205 29.069 18.663C27.7305 19.4207 26.2055 19.7853 24.669 19.715L14.113 20.171C12.0758 20.1972 10.0453 20.41 8.04702 20.807C7.53263 20.8969 7.04318 21.0949 6.61102 21.388C6.2857 21.6695 6.0081 22.0018 5.78902 22.372C4.81702 23.835 3.90802 25.363 3.08902 26.913C3.06813 26.9521 3.03699 26.9848 2.99893 27.0075C2.96088 27.0302 2.91635 27.0422 2.87202 27.042ZM16.2 0.487033C13.853 0.487033 11.386 0.619033 8.76402 0.881033C6.41402 1.11703 4.03902 1.55703 2.58902 3.16703C1.67555 4.30124 1.10362 5.67193 0.940024 7.11903C0.544196 9.78027 0.394562 12.4723 0.493024 15.161C0.440169 15.9481 0.559964 16.7371 0.844024 17.473C1.06234 17.8725 1.33122 18.2422 1.64402 18.573C1.83002 18.79 2.02202 19.014 2.19402 19.253C3.48102 21.066 3.37302 23.4 3.20002 25.684C3.88102 24.463 4.61402 23.262 5.38502 22.101C5.63185 21.685 5.94613 21.3129 6.31502 21C6.80202 20.6621 7.35637 20.4335 7.94002 20.33C9.96745 19.9255 12.0278 19.7086 14.095 19.682L24.651 19.226C26.0936 19.2939 27.5268 18.9602 28.791 18.262C29.4533 17.7589 29.9991 17.1187 30.391 16.385C30.9085 15.5398 31.2832 14.6151 31.5 13.648C31.7095 12.3751 31.7257 11.0778 31.548 9.80003C31.324 7.55903 30.918 5.26003 29.48 3.62703C27.746 1.66003 24.851 1.10003 22.523 0.835033C20.4237 0.598644 18.3126 0.482454 16.2 0.487033Z" fill="black"/>
<path d="M6.44605 13.3661C6.38134 13.3673 6.3188 13.3427 6.2722 13.2978C6.2256 13.2529 6.19874 13.1913 6.19755 13.1266C6.19636 13.0619 6.22092 12.9993 6.26583 12.9527C6.31075 12.9061 6.37234 12.8793 6.43705 12.8781L25.0101 12.1421C25.0423 12.14 25.0745 12.1446 25.105 12.1553C25.1354 12.1661 25.1633 12.183 25.187 12.2048C25.2108 12.2267 25.2298 12.2531 25.2431 12.2826C25.2563 12.312 25.2634 12.3438 25.264 12.3761C25.2665 12.4406 25.2432 12.5035 25.1994 12.551C25.1555 12.5984 25.0946 12.6265 25.0301 12.6291L6.45605 13.3671L6.44605 13.3661Z" fill="black"/>
<path d="M6.09903 7.98803C6.03431 7.98936 5.97173 7.96492 5.92503 7.9201C5.87833 7.87528 5.85135 7.81375 5.85003 7.74903C5.8487 7.68432 5.87314 7.62173 5.91796 7.57504C5.96278 7.52834 6.02431 7.50136 6.08903 7.50003L25.009 6.71803C25.0419 6.71506 25.0751 6.7188 25.1066 6.72903C25.138 6.73926 25.167 6.75577 25.1919 6.77756C25.2167 6.79935 25.2369 6.82596 25.2511 6.85578C25.2654 6.8856 25.2734 6.918 25.2748 6.95103C25.2762 6.98405 25.2708 7.01701 25.259 7.0479C25.2473 7.07878 25.2293 7.10696 25.2064 7.13071C25.1834 7.15446 25.1558 7.1733 25.1253 7.18608C25.0948 7.19885 25.0621 7.2053 25.029 7.20503L6.10903 7.98703H6.09903" fill="black"/>
<path d="M11.542 22.668C11.526 22.6678 11.5103 22.6629 11.497 22.654C11.4881 22.6481 11.4805 22.6404 11.4745 22.6315C11.4686 22.6226 11.4645 22.6126 11.4624 22.6021C11.4604 22.5916 11.4604 22.5808 11.4626 22.5703C11.4648 22.5598 11.469 22.5499 11.475 22.541L12.665 20.756C12.6769 20.738 12.6955 20.7254 12.7167 20.7211C12.7379 20.7168 12.76 20.7211 12.778 20.733C12.796 20.745 12.8086 20.7636 12.8129 20.7848C12.8172 20.8059 12.8129 20.828 12.801 20.846L11.61 22.632C11.6025 22.6431 11.5923 22.6522 11.5805 22.6585C11.5686 22.6648 11.5554 22.668 11.542 22.668Z" fill="black"/>
<path d="M12.996 23.582C12.9812 23.5819 12.9666 23.5778 12.954 23.57C12.9448 23.5644 12.9368 23.5571 12.9305 23.5485C12.9242 23.5398 12.9196 23.53 12.9171 23.5196C12.9146 23.5092 12.9142 23.4984 12.9159 23.4878C12.9176 23.4772 12.9214 23.4671 12.927 23.458C13.551 22.436 14.227 21.425 14.927 20.458C14.9403 20.4405 14.9599 20.4289 14.9817 20.4259C15.0034 20.4229 15.0255 20.4287 15.043 20.442C15.0605 20.4552 15.072 20.4749 15.075 20.4967C15.078 20.5184 15.0723 20.5405 15.059 20.558C14.359 21.526 13.689 22.532 13.067 23.551C13.0598 23.5628 13.0497 23.5727 13.0376 23.5795C13.0255 23.5863 13.0119 23.5899 12.998 23.59" fill="black"/>
<path d="M15.442 23.8521C15.4299 23.8522 15.4179 23.8494 15.407 23.8441C15.3877 23.8348 15.3728 23.8182 15.3657 23.798C15.3586 23.7777 15.3598 23.7554 15.369 23.7361C15.9203 22.5968 16.5607 21.5027 17.284 20.4641C17.2901 20.4554 17.2979 20.4479 17.3069 20.4422C17.3159 20.4364 17.3259 20.4325 17.3364 20.4307C17.3469 20.4288 17.3576 20.4291 17.368 20.4314C17.3784 20.4337 17.3883 20.438 17.397 20.4441C17.4058 20.4502 17.4132 20.458 17.4189 20.4669C17.4247 20.4759 17.4286 20.486 17.4304 20.4964C17.4323 20.5069 17.4321 20.5177 17.4298 20.5281C17.4275 20.5385 17.4231 20.5484 17.417 20.5571C16.6995 21.5872 16.0642 22.6722 15.517 23.8021C15.5103 23.8158 15.5 23.8273 15.4871 23.8355C15.4742 23.8436 15.4593 23.848 15.444 23.8481" fill="black"/>
<path d="M17.794 23.938C17.7798 23.9381 17.7658 23.9345 17.7535 23.9275C17.7411 23.9205 17.7308 23.9103 17.7236 23.898C17.7164 23.8858 17.7126 23.8718 17.7125 23.8576C17.7124 23.8434 17.716 23.8294 17.723 23.817L19.53 20.607C19.5406 20.5882 19.5583 20.5744 19.5791 20.5686C19.5999 20.5627 19.6222 20.5654 19.641 20.576C19.6599 20.5866 19.6737 20.6043 19.6795 20.6251C19.6853 20.6459 19.6826 20.6682 19.672 20.687L17.865 23.897C17.858 23.9098 17.8478 23.9204 17.8353 23.9278C17.8228 23.9351 17.8085 23.938 17.794 23.938Z" fill="black"/>
<path d="M20.303 23.9781C20.2909 23.978 20.279 23.9752 20.2681 23.9701C20.2487 23.9608 20.2338 23.9442 20.2267 23.9239C20.2196 23.9037 20.2208 23.8814 20.23 23.8621C20.792 22.6871 21.4201 21.5281 22.0971 20.4151C22.1082 20.3966 22.1262 20.3834 22.1471 20.3782C22.168 20.3731 22.1901 20.3764 22.2085 20.3876C22.227 20.3987 22.2402 20.4167 22.2454 20.4376C22.2505 20.4585 22.2472 20.4806 22.2361 20.4991C21.5621 21.6081 20.9361 22.7621 20.3771 23.9321C20.3705 23.9458 20.3601 23.9575 20.3472 23.9656C20.3343 23.9737 20.3183 23.978 20.303 23.9781Z" fill="black"/>
<path d="M22.961 23.8591C22.9504 23.8592 22.9398 23.8571 22.93 23.8531C22.9202 23.849 22.9112 23.843 22.9036 23.8355C22.8961 23.828 22.8901 23.8191 22.886 23.8092C22.8819 23.7994 22.8798 23.7888 22.8798 23.7781C22.8798 23.7675 22.8819 23.7569 22.886 23.7471C23.368 22.5831 23.908 21.4281 24.493 20.3131C24.5031 20.294 24.5203 20.2797 24.541 20.2733C24.5616 20.2669 24.5839 20.269 24.603 20.2791C24.6221 20.2891 24.6364 20.3064 24.6428 20.327C24.6492 20.3477 24.6471 20.37 24.637 20.3891C24.055 21.4991 23.517 22.6491 23.037 23.8091C23.0308 23.8238 23.0203 23.8364 23.007 23.8453C22.9937 23.8542 22.977 23.859 22.961 23.8591Z" fill="black"/>
<path d="M25.544 23.5021C25.5345 23.502 25.525 23.5003 25.516 23.4971C25.4968 23.4896 25.4811 23.4751 25.4722 23.4566C25.4633 23.438 25.4618 23.4167 25.468 23.3971C25.863 22.3381 26.31 21.2841 26.798 20.2641C26.8026 20.2544 26.8091 20.2458 26.817 20.2386C26.8249 20.2314 26.8342 20.2259 26.8443 20.2223C26.8544 20.2188 26.865 20.2172 26.8757 20.2178C26.8864 20.2183 26.8969 20.221 26.9065 20.2256C26.9162 20.2302 26.9248 20.2366 26.932 20.2445C26.9391 20.2525 26.9447 20.2618 26.9482 20.2718C26.9518 20.2819 26.9534 20.2926 26.9528 20.3033C26.9523 20.3139 26.9496 20.3244 26.945 20.3341C26.459 21.3491 26.014 22.3981 25.621 23.4531C25.6153 23.4686 25.6049 23.482 25.5913 23.4915C25.5777 23.501 25.5616 23.5061 25.545 23.5061" fill="black"/>
<path d="M27.883 23.5001C27.8706 23.5001 27.8583 23.4973 27.847 23.4921C27.8278 23.4824 27.8131 23.4656 27.8062 23.4452C27.7992 23.4248 27.8006 23.4025 27.81 23.3831L30.432 18.0431C30.4367 18.0335 30.4433 18.0249 30.4513 18.0179C30.4594 18.0108 30.4687 18.0054 30.4788 18.002C30.489 17.9986 30.4997 17.9972 30.5103 17.9979C30.521 17.9986 30.5314 18.0013 30.541 18.0061C30.5506 18.0108 30.5592 18.0174 30.5662 18.0254C30.5733 18.0334 30.5786 18.0428 30.5821 18.0529C30.5855 18.063 30.5869 18.0737 30.5862 18.0844C30.5855 18.0951 30.5827 18.1055 30.578 18.1151L27.957 23.4551C27.9502 23.4686 27.9397 23.4799 27.9269 23.4879C27.914 23.4958 27.8981 23.5 27.883 23.5001Z" fill="black"/>
<path d="M32.955 12.298C32.9447 12.298 32.9345 12.296 32.925 12.292C32.9151 12.2881 32.9061 12.2823 32.8984 12.275C32.8907 12.2676 32.8846 12.2588 32.8803 12.249C32.876 12.2393 32.8737 12.2288 32.8735 12.2181C32.8733 12.2075 32.8752 12.1969 32.879 12.187C33.684 10.121 34.5791 8.06299 35.5491 6.06899C35.5585 6.04963 35.5752 6.0348 35.5955 6.02777C35.6159 6.02074 35.6382 6.02207 35.6575 6.03149C35.6769 6.0409 35.6917 6.05762 35.6988 6.07797C35.7058 6.09832 35.7045 6.12063 35.695 6.13999C34.731 8.12999 33.834 10.185 33.03 12.246C33.0242 12.2613 33.0137 12.2746 33.0002 12.2838C32.9866 12.2931 32.9715 12.2981 32.955 12.298Z" fill="black"/>
<path d="M32.161 7.25807C32.1468 7.25825 32.1329 7.25471 32.1205 7.24781C32.1081 7.24092 32.0978 7.2309 32.0905 7.21875C32.0832 7.20661 32.0793 7.19277 32.079 7.17862C32.0787 7.16446 32.0822 7.15048 32.089 7.13807L33.152 5.14807C33.1568 5.13839 33.1635 5.12976 33.1717 5.12271C33.1799 5.11566 33.1895 5.11032 33.1998 5.10702C33.2101 5.10372 33.2209 5.10251 33.2317 5.10347C33.2425 5.10443 33.253 5.10755 33.2625 5.11262C33.2721 5.1177 33.2805 5.12464 33.2874 5.13304C33.2942 5.14143 33.2993 5.15111 33.3023 5.1615C33.3053 5.17189 33.3062 5.18278 33.305 5.19352C33.3037 5.20427 33.3003 5.21466 33.295 5.22407L32.232 7.21507C32.2251 7.22813 32.2147 7.23904 32.202 7.24662C32.1893 7.2542 32.1758 7.25816 32.161 7.25807Z" fill="black"/>
<path d="M30.23 23.526C30.2197 23.526 30.2095 23.524 30.2 23.52C30.1901 23.5162 30.181 23.5104 30.1734 23.503C30.1657 23.4956 30.1595 23.4868 30.1553 23.4771C30.151 23.4673 30.1487 23.4568 30.1485 23.4462C30.1482 23.4355 30.1501 23.4249 30.154 23.415C32.0921 18.4853 34.284 13.6592 36.721 8.95603C36.731 8.93694 36.7481 8.92258 36.7686 8.91611C36.7788 8.9129 36.7895 8.91173 36.8001 8.91266C36.8107 8.9136 36.8211 8.91661 36.8305 8.92153C36.84 8.92646 36.8484 8.9332 36.8552 8.94137C36.8621 8.94953 36.8672 8.95897 36.8704 8.96914C36.8736 8.97931 36.8748 8.99001 36.8739 9.00063C36.873 9.01125 36.8699 9.02158 36.865 9.03103C34.4305 13.7292 32.2409 18.5504 30.305 23.475C30.299 23.4902 30.2885 23.5032 30.2749 23.5123C30.2613 23.5214 30.2464 23.5262 30.23 23.526Z" fill="black"/>
<path d="M32.38 23.724C32.3662 23.7241 32.3526 23.7206 32.3405 23.7139C32.3284 23.7073 32.3182 23.6976 32.3109 23.6859C32.3035 23.6741 32.2994 23.6607 32.2987 23.6469C32.298 23.6331 32.3009 23.6194 32.307 23.607L37.066 13.876C37.0754 13.8566 37.0922 13.8418 37.1125 13.8348C37.1329 13.8277 37.1552 13.8291 37.1745 13.8385C37.1939 13.8479 37.2087 13.8646 37.2157 13.885C37.2228 13.9053 37.2214 13.9276 37.212 13.947L32.453 23.679C32.4462 23.6925 32.4358 23.7039 32.4229 23.7118C32.41 23.7197 32.3952 23.724 32.38 23.724Z" fill="black"/>
<path d="M35.218 21.748C35.2042 21.7481 35.1906 21.7446 35.1785 21.7379C35.1664 21.7313 35.1562 21.7216 35.1489 21.7099C35.1416 21.6981 35.1374 21.6847 35.1367 21.6709C35.136 21.6571 35.1389 21.6434 35.145 21.631L37.165 17.578C37.1698 17.5684 37.1763 17.5598 37.1844 17.5528C37.1924 17.5457 37.2018 17.5403 37.2119 17.5369C37.222 17.5335 37.2327 17.5321 37.2434 17.5328C37.254 17.5335 37.2645 17.5363 37.274 17.541C37.2836 17.5457 37.2922 17.5523 37.2992 17.5603C37.3063 17.5684 37.3117 17.5777 37.3151 17.5878C37.3185 17.5979 37.32 17.6086 37.3193 17.6193C37.3186 17.63 37.3158 17.6404 37.311 17.65L35.291 21.703C35.2843 21.7166 35.2739 21.728 35.261 21.7359C35.2481 21.7439 35.2332 21.7481 35.218 21.748Z" fill="black"/>
<g opacity="0.129">
<mask id="mask2_130_1555" style="mask-type:luminance" maskUnits="userSpaceOnUse" x="9" y="5" width="25" height="17">
<path d="M33.393 5.06299H9.94702V21.639H33.393V5.06299Z" fill="white"/>
</mask>
<g mask="url(#mask2_130_1555)">
<path d="M33.109 8.35602C33.0312 8.03698 32.9227 7.7262 32.785 7.42802C32.801 7.45002 32.842 7.57802 32.833 7.53602C32.713 7.18002 32.6 6.82002 32.452 6.47402C32.569 6.75302 32.33 6.17402 32.266 6.06202C32.1336 5.78769 31.9724 5.52823 31.785 5.28802C31.7497 5.2289 31.7013 5.17856 31.6437 5.14079C31.5861 5.10302 31.5207 5.0788 31.4523 5.06994C31.384 5.06109 31.3145 5.06783 31.2492 5.08967C31.1839 5.11151 31.1243 5.14787 31.075 5.19602C30.813 5.47102 30.991 5.75002 31.175 5.99602C31.2914 6.15949 31.3787 6.34184 31.433 6.53502C31.585 7.03502 31.687 7.39102 31.759 7.66802C31.7346 7.69221 31.7135 7.71943 31.696 7.74902C31.5905 8.32083 31.5167 8.89805 31.475 9.47802C31.461 9.55502 31.461 9.57202 31.464 9.55902C31.375 10.165 31.245 10.806 31.141 11.571C30.9756 12.477 30.7248 13.3653 30.392 14.224C29.9823 15.1957 29.3145 16.0367 28.461 16.656C27.4652 17.295 26.3892 17.7994 25.261 18.156C23.9498 18.5289 22.6018 18.7583 21.241 18.84C19.588 19.003 17.934 19.14 16.284 19.34C15.136 19.44 14.212 19.467 13.341 19.62C12.996 19.674 12.655 19.747 12.314 19.82L12.285 19.831L11.798 19.85C11.6982 19.8481 11.5994 19.8712 11.5107 19.9171C11.422 19.963 11.3461 20.0304 11.29 20.113L10.928 20.075C10.7354 20.022 10.5313 20.0279 10.342 20.092C10.2054 20.1514 10.0933 20.2558 10.0244 20.3878C9.9555 20.5198 9.93392 20.6714 9.96328 20.8174C9.99265 20.9634 10.0712 21.095 10.1858 21.1901C10.3004 21.2852 10.4441 21.3381 10.593 21.34C12.8384 21.5998 15.1001 21.6907 17.359 21.612C18.519 21.571 19.666 21.395 20.818 21.269C22.97 21.0994 25.1081 20.7853 27.218 20.329C28.1533 20.1769 29.0491 19.8406 29.8535 19.3397C30.6579 18.8388 31.3549 18.1833 31.904 17.411C33.3033 14.6112 33.7274 11.4243 33.109 8.35602ZM30.861 16.61C30.6728 16.9871 30.4098 17.3219 30.088 17.594C30.0673 17.5168 30.0296 17.4451 29.9777 17.3842C29.9258 17.3233 29.861 17.2748 29.788 17.242C30.5543 16.5497 31.1645 15.7023 31.578 14.756C31.555 14.842 31.532 14.927 31.507 15.014C31.3752 15.5747 31.1584 16.112 30.864 16.607" fill="black"/>
</g>
</g>
</g>
</g>
</svg>
